<svg width="145" height="116" viewBox="0 0 145 116" fill="none" xmlns="http://www.w3.org/2000/svg">
<path d="M122.175 3.9527C124.657 1.4473 128.03 0.0263397 131.557 0.000362501C135.083 -0.0256147 138.477 1.3455 140.996 3.81406C143.515 6.28262 144.954 9.64789 144.999 13.1744C145.044 16.7009 143.691 20.1019 141.237 22.6341L70.2072 111.43C68.987 112.744 67.5145 113.798 65.8777 114.53C64.241 115.262 62.4734 115.657 60.6807 115.691C58.888 115.725 57.1069 115.397 55.4436 114.727C53.7804 114.057 52.2692 113.059 51.0003 111.792L3.90713 64.7172C1.40459 62.2135 -0.000849142 58.8181 3.84903e-07 55.2781C0.000849912 51.7382 1.40792 48.3435 3.91166 45.841C6.4154 43.3384 9.81073 41.933 13.3507 41.9338C16.8907 41.9347 20.2853 43.3418 22.7879 45.8455L60.033 83.0997L121.821 4.36945C121.933 4.22619 122.055 4.09003 122.184 3.96176L122.175 3.9527Z" fill="white"/>
</svg>
